<svg xmlns="http://www.w3.org/2000/svg" width="771" height="706" fill="none"><path fill="url(#a)" d="M377.736 13.813c-2.61 8.017-4.847 16.407-4.847 18.645s-.746 4.66-1.865 5.22c-.932.56-1.864 4.288-1.864 8.204 0 5.593-.746 7.457-3.729 8.203-3.169.746-3.729 2.61-3.729 10.254 0 8.39-.559 9.51-4.102 10.069-3.915.559-4.288 1.491-4.288 13.05 0 11.933-.186 12.492-4.102 11.56-5.406-1.491-6.898 3.915-5.22 18.085l1.305 11.187-5.22-1.305-5.034-1.305 1.118 16.22c1.119 15.662 1.119 16.035-2.61 13.984-2.237-1.119-4.288-1.492-4.847-.933-1.678 1.678-.746 17.153 1.305 22.56 2.796 7.272 2.237 8.95-2.051 7.831-2.238-.559-4.102 0-4.661 1.491-.933 2.238 1.305 17.153 4.101 26.289.933 3.543.373 3.915-3.728 3.17-4.102-.933-4.848-.373-4.848 3.542 0 2.424 1.305 9.322 2.797 15.102 1.491 5.966 2.796 11 2.796 11.373s-2.051.187-4.661-.373c-4.474-.745-4.661-.373-4.661 7.272 0 4.847 2.051 12.305 4.661 18.085l4.661 10.068-5.966-1.305-5.78-1.305 1.305 8.017c.56 4.474 3.356 12.305 5.78 17.153 2.61 5.034 4.661 9.508 4.661 9.881s-2.051.746-4.661.746c-3.915 0-4.661.932-4.661 5.034 0 5.78 7.644 23.678 11 25.543 3.356 2.051 2.424 4.847-1.678 4.847-2.051 0-3.729.56-3.729 1.305 0 4.848 4.848 17.153 9.509 24.798 6.526 10.813 6.712 11.559.746 9.322-3.915-1.492-4.661-1.305-4.661 1.678 0 6.152 4.102 15.848 10.627 25.17 5.034 7.085 5.966 9.322 3.915 10.627-1.678 1.119-3.356-.373-5.779-5.22-2.611-4.848-4.102-5.967-5.594-4.475-3.542 3.542-4.474 2.424-5.593-7.271-1.492-13.051-5.034-19.763-10.254-19.204-3.543.373-4.102-.373-4.102-6.899 0-13.796-8.017-27.22-12.119-20.508-2.051 3.356-4.661 0-4.661-6.153 0-3.356-1.865-9.695-3.916-14.356l-3.728-8.39-3.356 4.101c-3.356 4.102-3.356 3.916-6.34-6.712-1.678-5.966-4.661-12.864-6.712-15.288-3.542-4.288-3.728-4.288-6.339-.932-2.796 3.915-3.542 3.356-6.712-6.339-1.118-3.543-3.729-8.577-5.779-11.187-3.17-3.915-3.916-4.288-5.407-1.864-2.238 3.356-2.238 3.356-8.577-9.323-5.966-11.746-8.576-14.169-11.373-10.254-1.864 2.424-2.61 1.864-4.661-3.17-1.305-3.356-4.102-8.949-6.153-12.491l-3.729-6.34-3.169 4.102-3.356 4.102-3.915-8.204c-4.662-9.695-11.187-16.593-12.492-13.051-1.492 4.102-3.543 2.611-8.95-5.966-5.593-8.763-9.695-11.559-12.678-8.576-1.118 1.118-3.915-1.119-7.83-5.967-4.102-5.406-7.085-7.644-9.882-7.457-2.424.373-5.407-1.492-7.831-4.475-2.051-2.61-5.407-5.034-7.457-5.22-2.051-.187-5.221-1.678-6.899-3.356-14.356-13.424-31.323-26.289-33.933-25.17-1.678.559 3.543 18.644 7.83 27.22 1.306 2.797 3.916 7.831 5.594 11.187s2.61 7.271 2.051 8.763c-.746 1.492.932 5.593 3.543 8.949 4.101 5.594 4.288 6.339 1.678 8.017s-2.424 2.611 1.491 8.39c2.424 3.543 5.593 7.458 7.085 8.95 2.051 2.051 1.864 2.796-.746 4.847-2.983 2.051-2.983 2.611.56 7.645 2.237 2.983 5.593 7.084 7.83 8.949 4.661 4.102 5.034 6.712 1.119 6.712-5.034 0-2.983 5.407 5.593 14.356 4.661 4.661 8.39 8.949 8.39 9.322s-1.678.56-3.729.56-3.729 1.118-3.729 2.61c0 2.797 14.17 16.034 17.153 16.034.746 0 1.492.746 1.492 1.865 0 .932-1.305 1.864-2.797 1.864-5.22 0-2.796 5.034 6.339 13.61 8.017 7.458 8.763 8.95 6.339 11.001s-1.491 3.729 8.018 12.119c7.084 6.152 9.881 9.881 7.83 9.881-1.678 0-3.729.746-4.288 1.865-1.119 1.864 11.56 14.169 19.39 18.644 4.848 2.61 4.848 2.797.746 3.356-8.39 1.305-3.17 7.831 13.051 16.407 8.39 4.475 8.949 4.848 5.593 7.271-5.034 3.729-1.491 8.204 12.119 15.102 8.95 4.475 11.001 6.153 9.136 8.018-2.983 3.169 6.899 11.559 18.645 16.034 8.017 3.169 8.39 3.356 4.474 5.407-2.237 1.305-3.356 2.983-2.61 4.101.746.933-1.864-1.305-5.966-5.034-10.814-9.881-14.17-11.373-17.153-7.644-2.051 2.983-2.424 2.797-5.034-.932-2.797-3.729-14.17-11.746-16.78-11.746-.559 0-1.119 1.864-1.119 4.102 0 3.915-.186 3.915-5.034-.746-2.983-2.797-7.644-6.339-10.814-7.831-5.22-2.796-5.593-2.61-6.898.746-1.305 3.729-1.678 3.543-9.136-1.864q-12.864-9.23-12.864-2.797c0 3.915-.746 3.542-9.696-2.797-8.39-6.152-12.305-6.898-13.796-2.983-.746 2.238-2.424 1.865-7.645-1.864-7.457-5.034-13.61-5.78-13.61-1.678 0 3.542-.559 3.542-8.763-.932-8.39-4.475-11.746-4.662-11.746-.933 0 3.543-1.864 3.543-8.576 0-6.34-3.356-13.797-3.729-13.797-.745 0 1.305-1.678 1.678-4.289.745-13.237-3.915-16.22-4.288-16.22-1.491 0 1.491-.746 2.051-1.865 1.491C52.763 423.431 0 422.313 0 424.364c0 1.678 17.153 15.102 19.39 15.102.56 0 2.797 1.678 4.848 3.729 2.05 2.05 5.034 3.728 6.525 3.728s2.797 1.678 2.797 3.543c0 2.237 2.05 4.288 5.593 5.593 3.543 1.119 5.594 3.17 5.594 5.407 0 2.424 2.237 4.288 7.271 5.966 5.22 1.678 7.644 3.543 8.017 6.339s2.983 4.662 9.322 6.712c6.712 2.238 8.577 3.543 8.39 6.34-.373 2.796 1.678 4.288 9.509 6.525 8.017 2.424 9.509 3.356 7.458 5.407-2.983 2.983.746 5.966 7.83 5.966q13.145.28 11.746 5.594c-.932 3.728 2.051 5.034 14.357 5.966 5.593.559 6.525 1.118 5.966 4.661-.559 3.729.559 4.288 10.814 5.407 9.508 1.118 10.813 1.678 8.949 3.915q-5.034 6.153 13.983 6.153c9.695 0 13.984 2.237 8.39 4.288-5.407 1.864 1.492 4.102 12.679 4.102 11.373 0 11.932.186 11.932 4.474s.186 4.475 13.051 3.543c10.814-.746 13.051-.559 13.051 1.864 0 2.238 2.238 2.611 13.051 1.865 12.119-.932 13.051-.746 13.051 2.796 0 3.356.933 3.543 10.814 2.611 5.78-.56 12.119-1.492 13.984-2.238 2.237-.932 3.169-.373 3.169 1.678s-1.678 2.983-5.593 2.983c-2.983 0-5.594.933-5.594 2.051s-2.796 1.678-6.525 1.492c-3.543-.373-7.458.373-8.763 1.678-1.119 1.119-4.848 2.237-8.204 2.237-3.542 0-6.339 1.119-7.084 2.797-.56 1.678-3.356 2.797-6.712 2.797-2.984 0-5.594.745-5.594 1.678s-3.356 2.05-7.458 2.796c-4.101.56-7.457 1.865-7.457 2.797s-2.424 2.237-5.407 2.983c-2.983.559-5.966 2.424-6.526 3.915s-3.542 2.611-6.712 2.611c-3.542 0-5.593.932-5.593 2.61 0 1.491-2.424 3.169-5.593 3.915-2.984.746-5.594 2.051-5.594 2.983 0 1.119-2.424 2.797-5.407 3.729-2.983 1.119-5.966 3.17-6.525 4.661-.56 1.492-2.238 2.61-3.916 2.61-1.491 0-2.796.746-2.796 1.492s-4.661 3.915-10.255 6.898c-14.729 8.018-13.61 10.255 6.153 10.628 55.747.932 65.069.746 67.866-.56 1.864-1.118 3.356-.932 3.729.373s2.423 1.119 6.152-.373c3.17-1.118 7.458-2.05 9.882-1.864 2.424 0 5.966-.746 7.831-1.678 2.237-1.119 3.915-1.305 4.661 0 1.305 2.051 6.152.559 10.627-3.17 2.051-1.864 3.356-2.05 4.288-.559.932 1.305 3.17.932 7.644-1.678 3.543-2.051 7.645-3.356 9.136-2.797 1.492.56 5.221-.745 8.39-2.983 2.983-2.237 6.339-3.542 7.272-2.983.932.746 4.288-.932 7.271-3.542 3.169-2.61 6.898-4.288 8.39-3.543 1.678.56 5.034-1.305 8.576-4.847 2.983-3.356 6.526-5.407 7.458-4.661 1.119.559 4.102-.933 6.712-3.543 2.61-2.796 5.966-4.847 7.458-4.847s4.102-1.678 6.153-3.729c2.983-3.356 23.119-14.916 25.729-14.916.559 0 .559 29.645-.187 66.002l-1.491 65.814 4.847.933c9.509 1.864 9.323 2.796 7.831-67.307-1.491-72.527-2.051-69.357 10.627-60.781 3.729 2.611 7.831 4.661 9.136 4.661 1.119 0 3.729 2.051 5.78 4.662s5.034 4.661 6.712 4.661 5.22 2.237 7.644 4.661c2.424 2.61 5.78 4.661 7.458 4.661 1.864 0 5.22 2.051 7.644 4.661s5.78 4.475 7.458 4.288c1.492-.186 5.034 1.119 7.831 2.983 2.983 1.865 6.339 2.983 7.644 2.424s4.475 1.119 6.898 3.729c2.797 2.983 5.594 4.288 8.017 3.542 2.238-.559 6.153.746 9.136 2.984 3.729 2.61 6.153 3.169 7.458 1.864s3.915-.746 8.017 1.678 6.712 2.983 7.458 1.678q1.119-1.957 4.475 0c1.864.932 5.779 1.864 8.762 1.864 10.255.187 18.458 1.306 23.12 3.17 3.169 1.305 5.034 1.305 5.966 0 .746-1.305 3.169-1.119 7.085.559 3.356 1.492 6.525 1.678 7.085.746.745-.932 7.644-1.864 15.288-2.051 31.509-.559 44.747-1.678 44.933-3.356.187-.932-5.966-5.407-13.424-10.068-7.644-4.661-14.915-9.508-16.221-10.814-1.305-1.305-4.101-2.423-6.152-2.423s-3.17-.933-2.61-1.865c.745-1.118-1.865-3.169-5.407-4.661-3.729-1.678-6.712-3.729-6.712-4.661 0-1.119-2.424-1.864-5.594-1.864q-5.593 0-5.593-2.797c0-1.492-2.61-3.17-6.526-3.915-3.542-.56-6.525-1.865-6.525-2.797s-2.424-1.678-5.407-1.678-6.712-1.305-8.39-2.797c-1.492-1.491-5.22-2.796-8.39-2.796-3.915 0-5.78-.933-5.78-2.797 0-2.051-2.051-2.797-7.644-2.797-4.475 0-7.085-.746-6.339-1.864s-2.237-1.865-7.271-1.865c-6.34 0-8.577-.745-8.577-2.796s2.237-2.797 9.509-2.797c8.39 0 9.322-.373 8.203-3.542-.932-3.17 0-3.356 12.119-2.424 10.628.746 13.051.373 13.051-1.865 0-2.051 2.983-2.61 13.611-2.61 12.864.187 13.424 0 13.051-4.102-.559-3.915 0-4.101 5.966-2.983 3.543.56 9.509.56 13.238 0 5.407-1.118 6.339-1.864 5.407-5.034-1.119-3.169-.187-3.542 8.762-3.542 11.746 0 16.78-2.238 13.052-5.966-2.051-2.051-.373-2.797 9.322-4.289 10.627-1.864 11.746-2.423 11.373-6.152-.373-3.543.373-4.102 5.593-4.102 9.695 0 14.17-1.865 14.729-6.339.373-3.17 2.238-4.102 9.323-4.848 10.254-1.305 12.118-2.61 9.135-6.339-2.051-2.424-1.491-2.983 2.983-4.102 15.848-3.542 16.408-3.729 15.848-7.457-.373-2.797 1.678-4.289 8.95-6.899 7.457-2.61 9.322-4.102 8.576-6.525-.932-2.611.746-3.916 6.898-5.967 5.407-1.864 7.831-3.915 7.831-6.152s2.424-4.475 6.153-5.967c3.169-1.491 5.966-3.728 5.966-5.22s2.051-3.542 4.661-4.661 4.661-2.983 4.661-4.102c0-.932 1.305-1.864 2.983-1.864 3.17 0 19.391-12.492 19.391-15.102 0-2.051-17.526-2.051-31.323 0-5.593.745-10.255.745-11-.373-.933-1.492-5.78-.932-12.492 1.678-2.051.746-2.983.186-2.983-1.865 0-3.542.373-3.542-9.509-.186-5.22 1.864-8.39 2.237-8.763.932-.932-2.61-9.881-2.237-15.288.932-5.966 3.356-7.458 3.356-7.458 0 0-4.101-5.407-3.356-14.356 1.865-7.644 4.288-8.017 4.288-8.017.746 0-4.848-4.102-4.475-12.492 1.305-5.966 3.915-7.271 4.288-7.644 1.864-.373-1.678-1.492-2.983-2.424-2.983-2.797 0-16.221 7.085-17.526 9.322-.932 1.305-2.051.932-3.542-1.118-2.797-3.729-7.458-2.611-15.102 4.101-5.407 4.661-5.594 4.661-6.153.933-.932-5.78-4.475-4.848-15.102 3.542-8.39 6.526-9.509 7.085-9.509 3.729 0-5.593-2.983-4.661-12.864 4.661-8.204 7.644-9.136 8.017-10.068 4.661-1.492-5.78-4.475-4.661-14.543 5.78-5.593 5.78-9.136 8.203-9.136 6.339 0-1.492-1.305-3.356-2.983-4.102-2.051-.746-.373-2.424 6.153-5.966 4.847-2.797 10.814-6.339 13.237-7.644 4.289-2.983 5.594-9.322 1.865-9.322-1.305 0 2.61-2.424 8.763-5.407 6.152-2.797 12.864-7.085 14.915-9.323 3.356-3.915 3.543-4.474.56-6.525-2.797-2.051-1.865-3.17 8.762-10.068 11.374-7.271 15.662-13.424 9.323-13.424-4.289 0-3.356-2.797 1.678-5.221 5.593-2.423 17.898-13.237 17.898-15.474 0-.933-1.678-2.424-3.915-3.17-3.542-1.492-3.17-2.237 5.593-8.763 10.628-8.203 12.492-11.373 8.204-13.797-2.61-1.305-2.051-2.61 4.102-7.83 10.627-9.509 12.119-11.001 12.119-13.797 0-1.305-1.119-2.983-2.238-3.356-1.491-.56.932-3.916 6.526-8.763 9.322-8.204 11.186-13.051 5.034-13.051-2.051 0-3.729-.373-3.729-.746s3.729-4.475 8.39-8.949c8.39-8.577 10.814-14.543 5.593-14.543-2.051 0-.559-2.983 4.661-9.509 7.645-9.695 9.136-13.797 5.221-15.102-1.305-.559.186-3.915 3.729-8.949 6.152-8.204 7.457-13.051 3.915-13.051-1.119 0-.186-2.983 2.051-6.526 2.237-3.729 3.729-7.83 3.169-9.136-.559-1.491.187-4.101 1.492-6.152 1.492-1.865 2.797-4.475 2.797-5.966 0-1.306 2.423-7.645 5.407-13.984 7.084-14.543 8.762-21.627 5.593-21.627-2.797 0-18.085 11.373-29.272 22-4.475 4.102-9.322 7.085-10.627 6.712-1.305-.559-5.034 2.237-8.204 6.153-3.169 3.915-5.78 5.966-5.78 4.661 0-4.848-5.593-1.865-11.373 6.153-4.661 6.525-6.525 7.83-8.576 6.339-3.17-2.797-6.712.186-13.051 10.813-4.288 7.458-4.848 7.831-7.085 4.848-2.424-3.17-2.61-3.17-6.153 0-1.864 1.864-5.034 6.526-6.898 10.627-3.17 6.899-6.526 9.882-6.526 5.594 0-1.119-1.305-1.865-2.796-1.865-3.356 0-9.882 9.882-11.56 17.153-1.119 5.78-3.356 6.712-5.034 2.424-2.051-5.407-5.22-2.61-10.627 9.509-4.289 9.322-6.153 11.932-7.831 10.254-1.119-1.119-2.797-2.051-3.729-2.051-1.305 0-7.831 12.865-11.559 23.306-1.306 3.542-1.306 3.542-2.984-.56-.745-2.237-2.423-4.101-3.356-4.101-2.237 0-11.373 18.271-11.373 22.559s-2.983 6.153-4.474 2.611c-.56-1.492-1.678-2.797-2.611-2.797-2.423 0-7.83 12.678-9.135 21.627-1.119 8.577-2.051 9.696-5.78 5.967-4.848-4.848-11.56 8.203-11.56 22.373 0 5.407-.559 5.966-3.729 5.034s-4.288 0-6.525 5.407c-1.678 3.729-3.356 10.627-4.102 15.102-.559 4.661-1.864 8.39-2.61 8.39-.932 0-1.678-.932-1.678-1.865 0-4.101-4.102-1.491-6.153 3.729-1.305 3.356-3.542 5.594-5.407 5.594-4.474 0-4.288-2.424.56-6.712 4.661-4.289 9.881-13.984 12.491-23.679 1.865-6.712 1.678-6.898-2.796-6.898-2.424 0-4.288-.56-3.916-1.492 14.543-29.085 15.662-33.933 8.763-33.933h-3.915l4.102-6.152c5.22-7.645 8.576-15.662 9.881-23.306 1.119-5.593.933-5.966-4.288-5.966-3.169 0-5.593-.373-5.593-.746s2.051-4.475 4.661-8.949c5.407-9.695 8.39-25.73 4.847-25.73-1.305 0-3.915.933-5.779 1.865-3.17 1.678-3.17 1.119.745-8.017 2.424-5.407 4.662-13.611 5.034-18.085.746-8.204.56-8.39-4.288-8.017-5.966.372-6.152 0-2.424-10.628 1.492-4.288 2.797-10.814 2.797-14.356 0-5.966-.373-6.526-4.661-5.78-4.102.932-4.661.56-3.542-2.983 2.61-8.017 4.474-17.153 4.474-22.746 0-5.221-.373-5.78-4.847-4.848-4.289.746-4.661.373-3.729-2.983 1.118-2.983 4.847-23.678 4.847-26.288 0-.373-2.423-.187-5.593.186l-5.593.932 1.118-10.441c.56-5.779 1.305-11.559 1.865-12.864 1.305-4.661-1.305-7.831-5.78-6.712-4.475 1.118-4.475.932-4.102-13.611.373-13.983.187-14.543-3.729-14.356-4.101.186-4.288-.56-4.288-12.678 0-12.12-.186-12.678-4.475-12.678s-4.661-.746-5.22-9.882c-.373-7.085-1.305-9.695-3.356-9.695s-2.983-2.424-3.356-8.95c-.373-4.847-1.305-8.762-2.424-8.762-.932 0-1.678-2.424-1.678-5.22 0-6.9-8.017-30.764-10.627-31.51-1.119-.373-4.288 5.78-6.899 13.797m-36.17 431.619c-1.678 1.678-2.237.746-2.051-4.288 0-5.967.187-6.153 2.051-2.051 1.492 3.169 1.492 4.847 0 6.339m86.51-.932c-2.05 2.051-3.542-1.119-2.05-4.475 1.491-3.17 1.491-3.17 2.237 0 .559 1.864.373 3.915-.187 4.475m-8.017 8.017c-.559 2.051-2.237 3.729-3.915 3.729-2.424 0-2.237-.56.559-3.729 1.865-2.051 3.543-3.729 3.916-3.729.186 0 0 1.678-.56 3.729m-66.56 3.169c-1.305 1.305-4.848-1.305-4.848-3.542 0-1.119 1.119-1.119 2.797.373 1.678 1.305 2.424 2.796 2.051 3.169m11.932 31.323c1.865 2.424 1.678 2.797-1.678 2.797-2.237 0-3.915-1.119-3.915-2.797 0-1.492.746-2.797 1.678-2.797s2.61 1.305 3.915 2.797m42.882 0c0 1.492-1.305 2.797-2.796 2.797-2.983 0-3.729-2.238-1.492-4.289 2.051-2.237 4.288-1.491 4.288 1.492m-44.746 11.187c0 2.61-.746 4.661-1.865 4.661-.932 0-1.864-2.051-1.864-4.661 0-2.611.932-4.661 1.864-4.661 1.119 0 1.865 2.05 1.865 4.661m44.746 1.118c0 2.051-.745 3.356-1.864 2.611-.932-.56-1.305-2.238-.559-3.729 1.305-3.916 2.423-3.543 2.423 1.118m86.697 61.154c3.17 1.305 3.17 1.492-1.492 2.424-3.542.746-5.034.186-5.034-1.492 0-2.796 1.119-2.983 6.526-.932"/><defs><linearGradient id="a" x1="385.008" x2="385.008" y1="705.129" y2="0" gradientUnits="userSpaceOnUse"><stop stop-color="#FFFFFF"/><stop offset="1" stop-color="#FFFFFF"/></linearGradient></defs></svg>