<svg xmlns="http://www.w3.org/2000/svg" width="35" height="24" fill="none" viewBox="0 0 35 24">
  <path fill="#fff" d="M30.725 0H4.275C1.918 0 0 1.893 0 4.219v15.009c0 2.326 1.918 4.218 4.275 4.218h26.45c2.357 0 4.275-1.892 4.275-4.218V4.219C35 1.893 33.083 0 30.725 0Zm-2.09 2.752L17.5 9.832 6.364 2.751h22.272Zm2.09 17.943H4.275c-.82 0-1.486-.659-1.486-1.467V4.297l13.85 8.788c.02.012.04.02.058.03l.061.032c.108.054.218.098.331.127.012.004.023.005.035.008.124.029.25.046.375.046h.003c.125 0 .25-.017.375-.046.012-.003.023-.004.035-.008a1.628 1.628 0 0 0 .392-.159c.019-.01.039-.018.057-.03l13.85-8.788v14.93a1.48 1.48 0 0 1-1.486 1.468Z"/>
</svg>
