<svg xmlns="http://www.w3.org/2000/svg" width="11" height="11" fill="none"><path stroke="#36EE73" stroke-linecap="round" stroke-linejoin="round" d="M4.998 1.426c.127-.286.19-.428.28-.472a.28.28 0 0 1 .244 0c.088.044.152.186.28.472l1.014 2.275a.6.6 0 0 0 .085.16.3.3 0 0 0 .093.067c.04.017.085.022.177.032l2.478.261c.31.033.466.05.536.12.06.062.088.148.075.233-.014.098-.13.202-.363.412l-1.85 1.667a.6.6 0 0 0-.125.131.3.3 0 0 0-.036.109.6.6 0 0 0 .025.179l.517 2.437c.064.305.097.458.051.546a.28.28 0 0 1-.198.144c-.097.016-.233-.062-.504-.218L5.62 8.736a.6.6 0 0 0-.162-.078.3.3 0 0 0-.115 0 .6.6 0 0 0-.162.078L3.022 9.981c-.271.156-.407.234-.504.218a.28.28 0 0 1-.198-.144c-.046-.088-.013-.24.052-.546l.516-2.437c.02-.09.03-.136.025-.18a.3.3 0 0 0-.036-.108.6.6 0 0 0-.124-.13L.902 4.985c-.232-.21-.348-.314-.363-.412a.28.28 0 0 1 .076-.233c.069-.07.224-.087.535-.12l2.478-.261a.6.6 0 0 0 .177-.032.3.3 0 0 0 .093-.068.6.6 0 0 0 .085-.159z"/></svg>