<svg xmlns="http://www.w3.org/2000/svg" width="11" height="11" fill="none"><path fill="#36EE73" d="M5 8.5 3 9l.5-2V6L2 5l2.5-.5.5-3z"/><path fill="#36EE73" d="m4.998 1.426.457.204zm.28-.472.222.448zm.244 0-.222.448zm.28.472-.457.204zm1.014 2.275-.457.204zm.086.16.371-.335zm.092.067-.203.456zm.178.032.052-.497zm2.477.261-.052.498zm.536.12.357-.35zm.075.233L9.767 4.5zm-.362.412.334.371zM8.047 6.653l-.335-.371zm-.125.131-.433-.25zm-.035.109.497.052zm.024.179.49-.104zm.517 2.437-.49.103zm.052.546-.443-.232zm-.198.144.083.493zm-.504-.218-.25.433zM5.62 8.736l-.25.433zm-.163-.078.104-.489zm-.114 0-.104-.49v.001zm-.163.078.25.433zM3.022 9.981l.25.433zm-.504.218-.083.493zm-.197-.144.443-.232zm.051-.546-.49-.104zm.517-2.437.489.103zm.024-.18.497-.052zm-.035-.108.433-.25zm-.125-.13-.335.37zM.903 4.985l-.335.371zM.54 4.574l-.495.073zm.075-.233.357.35zm.536-.12.052.498zm2.477-.261-.052-.497zm.178-.032-.203-.457zm.092-.068.372.335zm.086-.159.457.204zM5 8.5l.122.485.378-.095V8.5zM3 9l-.485-.121-.202.808.809-.202zm.5-2 .485.121.015-.06V7zm0-1H4v-.268l-.222-.148zM2 5l-.098-.49-1.183.236 1.004.67zm2.5-.5.098.49.339-.067.057-.34zm.5-3h.5l-.993-.082zm-.002-.074.457.204.081-.181q.035-.073.053-.106c.013-.024.016-.024.007-.013a.3.3 0 0 1-.096.072L5.278.954 5.056.506a.8.8 0 0 0-.34.35c-.057.1-.115.233-.175.367zm.28-.472.222.448a.23.23 0 0 1-.2 0l.222-.448.223-.448a.78.78 0 0 0-.69 0zm.244 0-.222.448a.3.3 0 0 1-.096-.072c-.008-.01-.006-.01.007.013q.019.033.053.106l.081.18.457-.203.457-.203c-.06-.134-.118-.266-.175-.367a.8.8 0 0 0-.34-.35zm.28.472-.457.204L6.36 3.905l.457-.204.457-.203L6.26 1.223zm1.014 2.275-.457.204c.024.054.077.185.171.29l.372-.335.371-.334q.018.019.026.033l.007.011-.01-.022-.023-.05zm.086.16-.372.334q.111.121.26.19l.204-.457.204-.457a.2.2 0 0 1 .075.055zm.092.067-.203.456c.129.058.27.067.328.073l.053-.497.052-.497-.079-.01.013.003.04.015zm.178.032-.053.497 2.478.262.052-.498.053-.497-2.478-.261zm2.477.261-.052.498.197.021c.055.007.091.013.117.018s.027.007.015.002a.3.3 0 0 1-.098-.069l.357-.35.357-.35a.8.8 0 0 0-.437-.214 5 5 0 0 0-.403-.053zm.536.12-.357.35a.23.23 0 0 1-.062-.19l.495.073.494.073a.78.78 0 0 0-.213-.655zm.075.233L9.767 4.5a.3.3 0 0 1 .039-.113c.007-.012.008-.01-.01.01q-.026.028-.086.083l-.146.133.335.372.334.371c.11-.098.217-.194.295-.28a.8.8 0 0 0 .228-.43zm-.362.412-.335-.372-1.85 1.668.334.371.335.372 1.85-1.668zM8.047 6.653l-.335-.37c-.043.038-.152.129-.223.251l.433.25.433.25-.024.035-.008.01.018-.017.04-.037zm-.125.131-.433-.25a.8.8 0 0 0-.1.306l.498.053.497.052a.2.2 0 0 1-.029.089zm-.035.109L7.39 6.84c-.015.14.02.278.032.335l.49-.103.488-.104-.011-.054-.004-.024v.055zm.024.179-.489.103.517 2.437.49-.103.488-.104L8.4 6.968zm.517 2.437-.49.103.041.194c.01.055.017.091.02.117S8 9.952 8 9.938a.3.3 0 0 1 .036-.115l.443.232.443.232a.8.8 0 0 0 .069-.483 5 5 0 0 0-.075-.4zm.052.546-.444-.232a.23.23 0 0 1 .162-.117l.084.493.083.493a.78.78 0 0 0 .558-.405zm-.198.144-.084-.493a.3.3 0 0 1 .12.002c.013.003.012.004-.013-.007L8.2 9.646l-.172-.098-.25.433-.25.433c.127.073.252.146.357.194a.8.8 0 0 0 .48.084zm-.504-.218.25-.433L5.87 8.303l-.25.433-.25.433 2.158 1.245zM5.62 8.736l.25-.433c-.052-.03-.17-.105-.309-.134l-.104.489-.104.489-.04-.012Q5.297 9.13 5.3 9.13l.021.012.048.027zm-.163-.078.104-.49a.8.8 0 0 0-.322 0l.104.49.103.49a.2.2 0 0 1-.092 0zm-.114 0-.104-.489c-.138.03-.257.105-.309.134l.25.433.25.433.07-.039-.012.005-.04.012zm-.163.078-.25-.433-2.158 1.245.25.433.25.433L5.43 9.17zM3.022 9.981l-.25-.433q-.101.059-.172.098l-.105.055c-.024.011-.026.01-.013.007a.3.3 0 0 1 .12-.002l-.084.493-.083.493a.8.8 0 0 0 .48-.084c.106-.048.23-.12.357-.194zm-.504.218.084-.493c.07.012.129.055.162.117l-.443.232-.444.232a.78.78 0 0 0 .558.405zm-.197-.144.443-.232a.3.3 0 0 1 .035.115c0 .014-.001.012.002-.015.003-.026.01-.062.02-.117.01-.054.024-.116.04-.194l-.489-.103-.49-.104c-.03.143-.06.284-.074.4a.8.8 0 0 0 .07.482zm.051-.546.49.103.516-2.437-.49-.103-.488-.104-.517 2.437zm.517-2.437.489.103c.012-.057.047-.194.032-.335l-.497.053-.497.052-.001-.043V6.89l-.004.024-.011.054zm.024-.18.497-.052a.8.8 0 0 0-.099-.306l-.433.25-.433.25a.2.2 0 0 1-.03-.089zm-.035-.108.433-.25c-.07-.122-.18-.213-.223-.252l-.335.371-.335.372.059.054-.008-.01-.024-.035zm-.125-.13.335-.372-1.85-1.668-.335.372-.335.371 1.85 1.668zM.903 4.985l.334-.372-.146-.133-.085-.083c-.019-.02-.018-.022-.01-.01.008.013.03.053.038.113l-.494.073-.495.073c.03.209.158.355.228.431.079.085.186.181.295.28zM.54 4.574l.494-.073c.01.07-.012.14-.062.19l-.357-.35-.357-.35a.78.78 0 0 0-.213.656zm.075-.233.357.35a.3.3 0 0 1-.098.069c-.012.005-.012.003.015-.002.026-.005.062-.011.117-.018l.197-.021-.052-.498-.053-.497c-.145.015-.289.03-.402.053a.8.8 0 0 0-.438.215zm.536-.12.052.498 2.478-.262-.053-.497-.052-.497-2.478.261zm2.477-.261.053.497c.058-.006.2-.015.328-.073l-.203-.456-.204-.457.04-.015.013-.003-.024.004-.055.006zm.178-.032.203.456a.8.8 0 0 0 .26-.189L3.9 3.86l-.372-.334a.2.2 0 0 1 .075-.055zm.092-.068.372.335c.095-.105.147-.236.17-.29l-.456-.204-.457-.203-.033.072.007-.01.026-.034zm.086-.159.457.204L5.455 1.63l-.457-.204-.457-.203-1.014 2.275zM5 8.5l-.12-.485-2 .5L3 9l.122.485 2-.5zM3 9l.485.121.5-2L3.5 7l-.485-.121-.5 2zm.5-2H4V6H3v1zm0-1 .278-.416-1.5-1L2 5l-.277.416 1.5 1zM2 5l.098.49 2.5-.5L4.5 4.5l-.098-.49-2.5.5zm2.5-.5.494.082.5-3L5 1.5l-.493-.082-.5 3zm.5-3h-.5v7h1v-7z"/></svg>