<svg xmlns="http://www.w3.org/2000/svg" width="128" height="119" fill="none"><path stroke="#fff" stroke-linejoin="round" stroke-width="10" d="M34.274 85 64.5 5l29.774 80M31 29l32.317 52.31q.037.061.07.128c.38.738 1.467.716 1.805-.067L97 29l16.5 32L91 89H37.5L15 61z"/><path fill="#fff" d="M12.891 119H9.017q-.494 0-.728-.208-.208-.234-.208-.728v-16.848q0-.494.208-.702.234-.234.728-.234h4.186q.416 0 .676.182.286.182.52.598l2.34 4.238q.13.234.208.338.105.104.26.104h.234q.156 0 .234-.104.104-.104.234-.338l2.314-4.238q.233-.416.494-.598.286-.182.702-.182h4.212q.494 0 .702.234.234.208.234.702v16.848q0 .494-.234.728-.209.208-.702.208h-4.004q-.494 0-.728-.208-.208-.234-.208-.728v-9.152l-1.534 2.834q-.234.442-.572.65-.312.182-.806.182h-1.04q-.495 0-.832-.182-.312-.208-.546-.65l-1.534-2.834v9.152q0 .494-.234.728-.208.208-.702.208m26.745 0h-4.212q-.494 0-.728-.208-.209-.234-.208-.728v-3.328l-3.978-5.33q-.6-.806-.806-1.404-.183-.599-.182-1.794v-4.992q0-.494.208-.702.233-.234.728-.234h4.004q.494 0 .702.234.234.208.234.702v4.264q0 .26.026.546t.208.546l1.196 1.872q.13.234.26.338a.64.64 0 0 0 .364.104h.26a.53.53 0 0 0 .338-.104.95.95 0 0 0 .286-.338l1.196-1.872q.18-.26.208-.546.026-.287.026-.546v-4.264q0-.494.208-.702.233-.234.728-.234h3.874q.493 0 .702.234.234.208.234.702v4.992q0 1.195-.208 1.794-.21.598-.78 1.404l-3.952 5.356v3.302q0 .494-.234.728-.21.208-.702.208m22.284-18.72h3.874q.493 0 .702.234.234.208.234.702v10.088q0 .832-.078 1.56-.053.702-.39 1.664l-1.3 3.536q-.13.39-.39.676-.234.26-.65.26h-3.458q-.418 0-.754-.182-.339-.182-.442-.598l-1.196-4.238q-.078-.26-.208-.338a.35.35 0 0 0-.26-.104h-.234a.45.45 0 0 0-.286.104q-.105.078-.182.338l-1.222 4.238q-.105.39-.39.598-.287.182-.702.182h-3.432q-.417 0-.728-.26a1.5 1.5 0 0 1-.416-.676l-1.3-3.588q-.339-.962-.416-1.664a22 22 0 0 1-.052-1.56v-10.036q0-.494.208-.702.234-.234.728-.234h4.004q.494 0 .702.234.234.208.234.702v9.568l1.508-3.276q.207-.442.546-.624.337-.182.832-.182h1.092q.493 0 .832.182.337.181.546.624l1.508 3.276v-9.568q0-.494.208-.702.233-.234.728-.234M83.085 119H71.021q-.495 0-.728-.208-.208-.234-.208-.728v-16.848q0-.494.208-.702.234-.234.728-.234h12.064q.494 0 .702.234.234.208.234.702v3.042q0 .494-.234.728-.209.208-.702.208h-7.176v2.002h5.07q.494 0 .702.234.234.209.234.702v2.782q0 .494-.234.728-.209.208-.702.208h-5.07v2.236h7.176q.494 0 .702.234.234.209.234.702v3.042q0 .494-.234.728-.209.208-.702.208m17.012 0H88.033q-.494 0-.728-.208-.208-.234-.208-.728v-16.848q0-.494.208-.702.234-.234.728-.234h12.064q.494 0 .702.234.234.208.234.702v3.042q0 .494-.234.728-.209.208-.702.208h-7.176v2.002h5.07q.494 0 .702.234.234.209.234.702v2.782q0 .494-.234.728-.209.208-.702.208h-5.07v2.236h7.176q.494 0 .702.234.234.209.234.702v3.042q0 .494-.234.728-.209.208-.702.208m13.709 0h-8.762q-.494 0-.728-.208-.208-.234-.208-.728v-16.848q0-.494.208-.702.234-.234.728-.234h8.762q3.25 0 4.81 1.3 1.587 1.3 1.586 4.004v8.112q0 2.704-1.586 4.004-1.56 1.3-4.81 1.3m-3.796-13.754v8.84h3.094q.624 0 .91-.312.312-.312.312-.962v-6.318q0-.65-.312-.936-.285-.312-.91-.312z"/></svg>