<svg xmlns="http://www.w3.org/2000/svg" width="169" height="101" fill="none" viewBox="0 0 169 101">
  <path fill="#fff" stroke="#fff" stroke-linecap="round" d="M33.874.5h54.412L82.11 12.131H44.794v42.89h22.52L94.612.5h40.264v66.695h-54.09l6.22-12.174h36.951v-42.89h-22.52L74.821 67.195l-40.947.184V.5Z"/>
  <path fill="#fff" fill-rule="evenodd" stroke="#fff" d="M128 9.38h40l-15.873 25.229L168 59.379h-40v-50Zm25.5 7.075h-18.516v35.85H153.5l-11.532-17.696L153.5 16.455ZM41 9.38H1l15.873 25.229L1 59.379h40v-50Zm-25.5 7.075h18.516v35.85H15.5l11.532-17.696L15.5 16.455Z" clip-rule="evenodd"/>
  <path fill="#fff" d="M25.604 99.38H21.73c-.33 0-.572-.07-.728-.209-.139-.156-.208-.398-.208-.728V81.596c0-.33.07-.564.208-.703.156-.156.399-.234.728-.234h4.186c.277 0 .503.061.676.182.19.122.364.321.52.599l2.34 4.237c.087.156.156.27.208.338.07.07.156.105.26.105h.234c.104 0 .182-.035.234-.105.07-.069.147-.181.234-.338l2.314-4.238c.156-.277.32-.476.494-.597.19-.122.425-.183.702-.183h4.212c.33 0 .563.078.702.234.156.14.234.373.234.703v16.847c0 .33-.078.573-.234.728-.139.14-.373.208-.702.208H34.34c-.33 0-.572-.069-.728-.208-.139-.156-.208-.398-.208-.728v-9.151l-1.534 2.834c-.156.294-.347.51-.572.65-.208.12-.477.181-.806.181h-1.04c-.33 0-.607-.06-.832-.181-.208-.14-.39-.356-.546-.65L26.54 89.29v9.153c0 .329-.078.572-.234.727-.139.14-.373.208-.702.208Zm26.745 0h-4.212c-.33 0-.572-.07-.729-.209-.138-.156-.208-.398-.208-.728v-3.328l-3.978-5.33c-.398-.537-.667-1.005-.806-1.403-.12-.4-.181-.997-.181-1.794v-4.992c0-.33.069-.564.208-.703.156-.156.398-.234.727-.234h4.005c.329 0 .563.078.702.234.155.14.233.373.233.703v4.263c0 .174.01.356.026.547.018.19.087.372.208.545l1.197 1.873c.086.156.173.268.26.338a.64.64 0 0 0 .363.103h.26a.524.524 0 0 0 .339-.103.95.95 0 0 0 .285-.339l1.197-1.871a1.12 1.12 0 0 0 .208-.546 6.05 6.05 0 0 0 .025-.547v-4.263c0-.33.07-.564.209-.703.156-.156.398-.234.727-.234h3.874c.33 0 .564.078.703.234.156.14.233.373.233.703v4.992c0 .797-.069 1.395-.207 1.794-.14.398-.4.866-.78 1.403l-3.953 5.356v3.302c0 .33-.078.573-.233.728-.14.14-.373.208-.703.208Zm17.526 0h-8.217c-.329 0-.572-.07-.727-.209-.14-.156-.209-.398-.209-.728v-3.041c0-.33.07-.564.209-.703.156-.156.398-.233.727-.233h6.995c.225 0 .39-.07.493-.209a.864.864 0 0 0 .183-.546c0-.294-.061-.51-.182-.65-.105-.138-.27-.216-.495-.234l-3.9-.546c-1.213-.173-2.192-.572-2.937-1.196-.728-.623-1.093-1.663-1.093-3.12v-2.73c0-1.473.477-2.6 1.43-3.38.954-.797 2.271-1.196 3.953-1.196h7.28c.329 0 .563.078.701.234.157.14.234.373.234.703v3.093c0 .33-.077.573-.233.729-.14.138-.373.207-.703.207h-6.058c-.225 0-.398.079-.52.234a.81.81 0 0 0-.181.547c0 .225.06.415.181.572a.692.692 0 0 0 .52.26l3.875.52c1.213.173 2.192.572 2.938 1.196.745.624 1.118 1.664 1.118 3.12v2.73c0 1.473-.486 2.608-1.457 3.406-.953.78-2.261 1.17-3.925 1.17Zm21.668-18.72h3.874c.329 0 .563.078.702.234.156.138.234.372.234.701v10.088c0 .555-.026 1.075-.078 1.56-.035.469-.165 1.023-.39 1.665l-1.3 3.535c-.087.26-.217.486-.39.677-.156.173-.373.26-.65.26h-3.458c-.278 0-.529-.061-.754-.182-.226-.122-.373-.321-.442-.598l-1.196-4.238c-.052-.174-.122-.286-.208-.338a.353.353 0 0 0-.26-.105h-.234c-.104 0-.2.035-.286.105-.07.052-.13.164-.182.338L85.303 98.6c-.07.26-.2.459-.39.598a1.28 1.28 0 0 1-.702.181h-3.432c-.278 0-.52-.086-.728-.26a1.493 1.493 0 0 1-.416-.675l-1.3-3.588c-.226-.642-.364-1.197-.416-1.664a21.996 21.996 0 0 1-.052-1.56V81.594c0-.329.069-.563.208-.701.156-.157.398-.235.728-.235h4.004c.329 0 .563.078.702.234.156.14.234.373.234.703v9.567l1.508-3.275c.138-.295.32-.503.546-.625.225-.12.502-.181.832-.181h1.092c.329 0 .606.06.832.181.225.122.407.33.546.624l1.508 3.276v-9.567c0-.33.069-.564.208-.703.156-.156.398-.234.728-.234Zm21.165 18.72h-12.064c-.329 0-.572-.07-.728-.209-.139-.156-.208-.398-.208-.728V81.596c0-.33.07-.564.208-.703.156-.156.399-.234.728-.234h12.064c.329 0 .563.078.702.234.156.14.234.373.234.703v3.041c0 .33-.078.573-.234.728-.139.14-.373.209-.702.209h-7.176v2.002h5.07c.329 0 .563.078.702.234.156.138.234.372.234.701v2.782c0 .33-.078.572-.234.728-.139.14-.373.209-.702.209h-5.07v2.236h7.176c.329 0 .563.078.702.234.156.138.234.372.234.701v3.043c0 .329-.078.572-.234.727-.139.14-.373.208-.702.208Zm17.012 0h-12.064c-.33 0-.572-.07-.728-.209-.139-.156-.208-.398-.208-.728V81.596c0-.33.069-.564.208-.703.156-.156.398-.234.728-.234h12.064c.329 0 .563.078.702.234.156.14.234.373.234.703v3.041c0 .33-.078.573-.234.728-.139.14-.373.209-.702.209h-7.176v2.002h5.07c.329 0 .563.078.702.234.156.138.234.372.234.701v2.782c0 .33-.078.572-.234.728-.139.14-.373.209-.702.209h-5.07v2.236h7.176c.329 0 .563.078.702.234.156.138.234.372.234.701v3.043c0 .329-.078.572-.234.727-.139.14-.373.208-.702.208Zm12.852 0h-4.212c-.33 0-.572-.07-.728-.209-.139-.156-.208-.398-.208-.728V85.677h-3.822c-.33 0-.572-.069-.728-.208-.139-.155-.208-.398-.208-.727v-3.147c0-.329.069-.563.208-.701.156-.157.398-.235.728-.235h13.728c.329 0 .563.078.702.234.156.14.234.373.234.703v3.145c0 .33-.078.573-.234.728-.139.14-.373.209-.702.209h-3.822v12.766c0 .329-.078.572-.234.727-.139.14-.373.208-.702.208Z"/>
</svg>
