<svg xmlns="http://www.w3.org/2000/svg" width="23" height="23" fill="none"><path fill="#fff" fill-rule="evenodd" d="M11.5 11.5c-2.549 0-4.622-2.063-4.622-4.6S8.951 2.3 11.5 2.3s4.622 2.063 4.622 4.6-2.073 4.6-4.622 4.6m4.342.774a6.88 6.88 0 0 0 2.51-6.444C17.896 2.814 15.374.4 12.331.048 8.13-.438 4.567 2.816 4.567 6.9a6.87 6.87 0 0 0 2.59 5.374C3.28 13.724.45 17.129.006 21.724A1.164 1.164 0 0 0 1.16 23c.588 0 1.09-.442 1.141-1.025.464-5.132 4.412-8.175 9.199-8.175s8.735 3.043 9.199 8.175A1.14 1.14 0 0 0 21.84 23c.687 0 1.22-.596 1.155-1.275-.444-4.596-3.275-8-7.153-9.451" clip-rule="evenodd"/></svg>