<svg xmlns="http://www.w3.org/2000/svg" width="32" height="31" fill="none" viewBox="0 0 32 31">
  <path fill="#fff" d="m21.955 21.183.747-.76-1.736-1.782-.747.76 1.736 1.782Zm3.257-1.077 3.135 1.74 1.175-2.208-3.134-1.74-1.176 2.208Zm3.739 5.199-2.332 2.367 1.736 1.782 2.33-2.367-1.734-1.782Zm-3.752 3.129c-2.38.226-8.535.024-15.199-6.742l-1.735 1.782c7.272 7.384 14.194 7.745 17.162 7.462l-.228-2.502ZM10 21.692c-6.353-6.45-7.405-11.876-7.536-14.23l-2.457.143c.165 2.962 1.468 8.975 8.258 15.869L10 21.692Zm2.257-10.356.47-.478-1.735-1.783-.47.478 1.735 1.783Zm.845-6.57-2.069-2.822-1.97 1.506 2.069 2.823 1.97-1.507ZM4.074 1.33 1.498 3.945l1.736 1.782 2.575-2.615L4.074 1.33Zm7.315 9.114c-.868-.89-.869-.89-.87-.888l-.002.002a.137.137 0 0 0-.005.005l-.01.011a1.426 1.426 0 0 0-.075.085 1.8 1.8 0 0 0-.124.168c-.088.133-.185.31-.267.533-.168.454-.258 1.053-.145 1.794.22 1.45 1.198 3.366 3.703 5.909l1.735-1.783c-2.344-2.38-2.902-3.828-3.006-4.511-.05-.325.002-.485.016-.523.009-.023.013-.026.002-.01a.49.49 0 0 1-.051.065l-.016.017a.326.326 0 0 1-.008.008l-.005.005-.002.002c-.001.001-.002.003-.87-.889Zm2.205 7.619c2.505 2.544 4.39 3.534 5.812 3.757.727.114 1.313.023 1.757-.146a2.49 2.49 0 0 0 .523-.27 2.022 2.022 0 0 0 .224-.178l.024-.023.01-.01.006-.006.002-.002c.001-.001.003-.002-.865-.894a46.241 46.241 0 0 1-.866-.893l.003-.003.004-.004a.237.237 0 0 0 .009-.009l.016-.015a.637.637 0 0 1 .063-.052c.015-.01.012-.006-.012.003-.04.016-.201.068-.525.017-.678-.106-2.106-.675-4.45-3.055l-1.735 1.783Zm-2.561-16.12C9.36-.336 6.071-.698 4.073 1.33L5.81 3.112c.873-.886 2.422-.796 3.254.338l1.97-1.506Zm-8.569 5.52c-.032-.58.228-1.186.77-1.736L1.498 3.945C.617 4.84-.077 6.107.007 7.605l2.457-.142ZM26.62 27.672c-.45.458-.934.716-1.42.762l.228 2.502c1.206-.114 2.194-.736 2.928-1.482l-1.736-1.782ZM12.727 10.858c1.616-1.64 1.736-4.235.375-6.092l-1.97 1.507c.662.903.563 2.088-.14 2.802l1.735 1.783Zm15.62 10.988c1.342.745 1.55 2.497.604 3.459l1.735 1.782c2.2-2.233 1.521-5.959-1.163-7.45l-1.176 2.209Zm-5.645-1.422c.63-.64 1.644-.799 2.51-.318l1.175-2.208c-1.778-.988-3.984-.715-5.42.743l1.735 1.783Z"/>
</svg>
