<svg xmlns="http://www.w3.org/2000/svg" width="24" height="30" fill="none" viewBox="0 0 24 30">
  <path fill="#fff" fill-rule="evenodd" d="M2.667 11.333c0-4.541 4.013-8.666 9.333-8.666s9.333 4.125 9.333 8.666c0 2.86-1.75 6.054-4.052 9.015-1.82 2.34-3.845 4.363-5.281 5.778-1.436-1.416-3.461-3.438-5.28-5.778-2.304-2.96-4.053-6.155-4.053-9.015ZM12 0C5.32 0 0 5.208 0 11.333c0 3.807 2.25 7.613 4.614 10.652 2.046 2.63 4.345 4.892 5.782 6.305.248.244.47.462.661.653a1.333 1.333 0 0 0 1.886 0c.19-.191.413-.41.66-.653 1.438-1.413 3.737-3.675 5.783-6.305C21.75 18.945 24 15.14 24 11.333 24 5.208 18.68 0 12 0Zm0 15.333a3.333 3.333 0 1 0 0-6.666 3.333 3.333 0 0 0 0 6.666Z" clip-rule="evenodd"/>
</svg>
