<svg xmlns="http://www.w3.org/2000/svg" width="12" height="11" fill="none"><path fill="#EA7AD5" stroke="#EA7AD5" stroke-linecap="round" stroke-linejoin="round" d="M5.398 1.426c.127-.286.191-.428.28-.472a.28.28 0 0 1 .244 0c.089.044.152.186.28.472l1.014 2.275a.6.6 0 0 0 .086.16.3.3 0 0 0 .092.067c.04.017.086.022.178.032l2.477.261c.311.033.467.05.536.12.06.062.088.148.075.233-.014.098-.13.202-.363.412l-1.85 1.667a.6.6 0 0 0-.125.131.3.3 0 0 0-.035.109.6.6 0 0 0 .024.179l.517 2.437c.065.305.097.458.051.546a.28.28 0 0 1-.197.144c-.098.016-.233-.062-.504-.218L6.02 8.736a.6.6 0 0 0-.163-.078.3.3 0 0 0-.114 0 .6.6 0 0 0-.163.078L3.422 9.981c-.27.156-.406.234-.504.218a.28.28 0 0 1-.198-.144c-.045-.088-.013-.24.052-.546l.517-2.437c.019-.09.029-.136.024-.18a.3.3 0 0 0-.035-.108.6.6 0 0 0-.125-.13l-1.85-1.668c-.233-.21-.35-.314-.364-.412a.28.28 0 0 1 .076-.233c.07-.07.225-.087.536-.12l2.477-.261a.6.6 0 0 0 .178-.032.3.3 0 0 0 .092-.068.6.6 0 0 0 .086-.159z"/></svg>